<svg xmlns="http://www.w3.org/2000/svg" version="1.0" width="268.000000" height="83.000000" preserveAspectRatio="xMidYMid meet" style=""><rect id="backgroundrect" width="100%" height="100%" x="0" y="0" fill="none" stroke="none"/>


<g class="currentLayer" style=""><title>Layer 1</title><g transform="translate(0,83) scale(0.10000000149011612,-0.10000000149011612) " fill="#fbfffe" stroke="none" id="svg_1" class="selected" fill-opacity="1">
<path d="M1041 805 c-16 -14 -43 -52 -59 -85 -35 -70 -61 -195 -44 -212 23 -23 39 0 45 62 6 67 51 172 87 205 20 18 21 18 44 -4 13 -12 37 -50 52 -84 26 -57 29 -73 32 -203 l4 -141 78 -139 c43 -77 77 -140 75 -142 -1 -1 -30 14 -64 34 -55 33 -61 39 -61 70 0 27 -4 34 -20 34 -16 0 -20 -7 -20 -35 l0 -35 -99 0 -100 0 -3 33 c-4 43 -31 43 -38 -1 -4 -27 -15 -38 -64 -68 -32 -19 -60 -34 -61 -32 -1 2 33 66 76 143 74 131 85 167 47 152 -19 -7 -201 -334 -193 -347 13 -21 56 -9 128 35 82 49 112 56 120 25 7 -26 27 -26 34 0 7 26 29 26 36 0 7 -26 27 -26 34 0 7 26 29 26 36 0 3 -11 10 -20 17 -20 7 0 14 9 17 20 8 31 38 24 120 -25 72 -44 115 -56 128 -35 4 6 -34 84 -84 173 l-91 163 0 101 c0 55 -5 125 -10 154 -20 109 -99 229 -150 229 -10 0 -32 -11 -49 -25z" id="svg_2" fill="#fbfffe" fill-opacity="1" stroke="none"/>
<path d="M129 701 c-47 -15 -69 -31 -85 -63 -18 -34 -15 -98 6 -123 13 -15 64 -35 152 -60 64 -17 82 -43 52 -76 -12 -14 -30 -19 -63 -19 -48 1 -73 13 -84 43 -5 12 -17 17 -47 17 -38 0 -41 -2 -35 -22 20 -66 61 -97 138 -105 105 -11 182 41 182 122 0 64 -31 91 -131 116 -92 24 -106 33 -102 68 6 52 122 52 135 1 4 -16 14 -20 44 -20 29 0 39 4 39 15 0 29 -30 75 -60 90 -37 19 -107 27 -141 16z" id="svg_3" fill="#fbfffe" fill-opacity="1" stroke="none"/>
<path d="M508 694 c-5 -4 -8 -94 -8 -201 l0 -193 45 0 45 0 0 69 0 68 72 6 c86 7 118 27 136 85 12 35 12 49 0 84 -20 63 -57 80 -182 86 -55 2 -104 1 -108 -4z m186 -74 c22 -8 26 -16 26 -49 0 -48 -18 -61 -84 -61 l-46 0 0 60 0 60 39 0 c22 0 51 -4 65 -10z" id="svg_4" fill="#fbfffe" fill-opacity="1" stroke="none"/>
<path d="M1451 683 c-18 -9 -45 -34 -60 -56 -22 -34 -27 -54 -29 -121 -4 -104 21 -159 88 -194 99 -50 222 -4 246 92 6 25 4 26 -32 26 -33 0 -42 -5 -56 -29 -33 -60 -120 -48 -155 20 -28 55 -6 176 36 199 11 5 36 10 55 10 28 0 41 -7 63 -35 22 -27 35 -35 61 -35 27 0 32 4 32 24 0 32 -45 85 -87 102 -44 19 -121 17 -162 -3z" id="svg_5" fill="#fbfffe" fill-opacity="1" stroke="none"/>
<path d="M1857 693 c-4 -3 -7 -93 -7 -200 l0 -193 150 0 150 0 0 35 0 34 -107 3 -108 3 -3 47 -3 47 98 3 98 3 3 32 3 32 -98 3 -98 3 0 40 0 40 103 3 102 3 0 34 0 35 -138 0 c-76 0 -142 -3 -145 -7z" id="svg_6" fill="#fbfffe" fill-opacity="1" stroke="none"/>
<path d="M2318 694 c-5 -4 -8 -94 -8 -201 l0 -193 40 0 39 0 3 78 c3 73 4 77 27 80 13 2 43 1 67 -3 48 -7 49 -9 59 -97 l6 -58 44 0 c44 0 44 0 40 33 -3 17 -7 53 -10 79 -4 31 -13 52 -25 61 -19 13 -19 14 5 37 32 30 40 70 21 113 -24 58 -51 69 -184 75 -64 2 -120 1 -124 -4z m213 -74 c13 -7 19 -21 19 -45 0 -44 -20 -55 -99 -55 l-61 0 0 48 c0 27 3 52 7 55 10 11 112 8 134 -3z" id="svg_7" fill="#fbfffe" fill-opacity="1" stroke="none"/>
<path d="M1100 521 c0 -22 -27 -41 -60 -41 -16 0 -21 -5 -18 -22 3 -21 8 -23 73 -23 l70 0 0 50 c0 49 -1 50 -32 53 -28 3 -33 0 -33 -17z" id="svg_8" fill="#fbfffe" fill-opacity="1" stroke="none"/>
</g></g></svg>